%FSTAX23Y23*%
%MOIN*%
%SFA1B1*%

%IPPOS*%
%ADD10C,0.005910*%
%ADD11C,0.007870*%
%ADD12C,0.009840*%
%ADD13C,0.010000*%
%ADD14C,0.006000*%
%LNoverlay-1*%
%LPD*%
G54D10*
X01641Y01497D02*
D01*
D01*
G75*
G03X01401I-00120J0D01*
G74*G01*
D01*
G75*
G03X01641I00120J0D01*
G74*G01*
G54D11*
X02212Y01578D02*
D01*
D01*
G75*
G03X02027Y01564I-00087J-00073D01*
G74*G01*
X02031Y0157D02*
D01*
D01*
G75*
G03X02213Y01432I00093J-00065D01*
G74*G01*
X01394Y03197D02*
Y03302D01*
Y03197D02*
X01805D01*
Y03302*
X01394D02*
X01805D01*
X02146Y02836D02*
X02303D01*
X02146Y02443D02*
Y02836D01*
Y02443D02*
X02303D01*
Y02836*
X01073Y01429D02*
X01136D01*
Y01472*
Y01677D02*
Y0172D01*
X01073D02*
X01136D01*
X0207Y03211D02*
Y03298D01*
X01898D02*
X0207D01*
X01898Y03211D02*
Y03298D01*
Y03211D02*
X0207D01*
X023Y03201D02*
Y03288D01*
X02129D02*
X023D01*
X02129Y03201D02*
Y03288D01*
Y03201D02*
X023D01*
X02215Y01435D02*
Y01575D01*
X01452Y02794D02*
X01547D01*
Y02545D02*
Y02794D01*
X01452Y02545D02*
Y02794D01*
Y02545D02*
X01547D01*
X02372Y0331D02*
X02477D01*
X02372Y01299D02*
Y0331D01*
Y01299D02*
X02477D01*
Y0331*
X01212Y01304D02*
X01317D01*
X01212D02*
Y03315D01*
X01317*
Y01304D02*
Y03315D01*
X02346Y01172D02*
Y01277D01*
X01333Y01172D02*
X02346D01*
X01333D02*
Y01277D01*
X02346*
G54D12*
X02375Y01225D02*
D01*
D01*
G75*
G03X02365I-00004J0D01*
G74*G01*
D01*
G75*
G03X02375I00004J0D01*
G74*G01*
G54D13*
X01635Y03085D02*
Y03144D01*
X01665*
X01675Y03134*
Y03115*
X01665Y03105*
X01635*
X01695Y03134D02*
X01704Y03144D01*
X01724*
X01734Y03134*
Y03125*
X01724Y03115*
X01714*
X01724*
X01734Y03105*
Y03095*
X01724Y03085*
X01704*
X01695Y03095*
X02035Y02659D02*
X02025Y02669D01*
X02005*
X01995Y02659*
Y0262*
X02005Y0261*
X02025*
X02035Y0262*
X02054Y0261D02*
X02074D01*
X02064*
Y02669*
X02054Y02659*
X01049Y01872D02*
X01029D01*
X01039*
Y01822*
X01029Y01812*
X01019*
X01009Y01822*
X01069Y01862D02*
X01079Y01872D01*
X01099*
X01109Y01862*
Y01852*
X01099Y01842*
X01089*
X01099*
X01109Y01832*
Y01822*
X01099Y01812*
X01079*
X01069Y01822*
X01974Y03164D02*
X01954D01*
X01964*
Y03115*
X01954Y03105*
X01944*
X01934Y03115*
X01994Y03105D02*
X02014D01*
X02004*
Y03164*
X01994Y03154*
X0225Y03374D02*
X0223D01*
X0224*
Y03325*
X0223Y03315*
X0222*
X0221Y03325*
X02309Y03315D02*
X0227D01*
X02309Y03355*
Y03364*
X02299Y03374*
X02279*
X0227Y03364*
X01404Y01715D02*
Y01656D01*
X01443*
X01503Y01705D02*
X01493Y01715D01*
X01473*
X01463Y01705*
Y01695*
X01473Y01685*
X01493*
X01503Y01675*
Y01666*
X01493Y01656*
X01473*
X01463Y01666*
X01523Y01656D02*
X01543D01*
X01533*
Y01715*
X01523Y01705*
X02006Y01724D02*
Y01665D01*
X02045*
X02105Y01724D02*
X02065D01*
Y01665*
X02105*
X02065Y01694D02*
X02085D01*
X02125Y01724D02*
Y01665D01*
X02155*
X02165Y01675*
Y01714*
X02155Y01724*
X02125*
X02185Y01665D02*
X02205D01*
X02195*
Y01724*
X02185Y01714*
X01458Y02909D02*
Y02968D01*
X01487*
X01497Y02958*
Y02938*
X01487Y02928*
X01458*
X01477D02*
X01497Y02909D01*
X01517D02*
X01537D01*
X01527*
Y02968*
X01517Y02958*
X0137Y01149D02*
Y011D01*
X0138Y0109*
X014*
X0141Y011*
Y01149*
X01429Y0109D02*
X01449D01*
X01439*
Y01149*
X01429Y01139*
X0219Y01955D02*
Y02014D01*
X0222*
X0223Y02004*
Y01985*
X0222Y01975*
X0219*
X02289Y01955D02*
X0225D01*
X02289Y01995*
Y02004*
X02279Y02014*
X02259*
X0225Y02004*
X01065Y03065D02*
Y03124D01*
X01095*
X01105Y03114*
Y03095*
X01095Y03085*
X01065*
X01124Y03065D02*
X01144D01*
X01134*
Y03124*
X01124Y03114*
G54D14*
X02245Y01519D02*
Y0149D01*
Y015*
X02264Y01519*
X0225Y01504*
X02264Y0149*
X0235Y0223D02*
Y02243D01*
Y02236*
X0231*
X02316Y0223*
Y02263D02*
X0231Y02269D01*
Y02283*
X02316Y02289*
X02343*
X0235Y02283*
Y02269*
X02343Y02263*
X02316*
X02345Y0135D02*
Y01363D01*
Y01356*
X02305*
X02311Y0135*
X02565Y03261D02*
Y03235D01*
X02538Y03261*
X02531*
X02525Y03254*
Y03241*
X02531Y03235*
Y03274D02*
X02525Y03281D01*
Y03294*
X02531Y03301*
X02558*
X02565Y03294*
Y03281*
X02558Y03274*
X02531*
X01155Y02385D02*
Y02371D01*
Y02378*
X01194*
X01188Y02385*
Y02351D02*
X01194Y02345D01*
Y02331*
X01188Y02325*
X01161*
X01155Y02331*
Y02345*
X01161Y02351*
X01188*
X0115Y0326D02*
Y03246D01*
Y03253*
X01189*
X01183Y0326*
X01155Y01358D02*
Y01385D01*
X01181Y01358*
X01188*
X01194Y01365*
Y01378*
X01188Y01385*
Y01345D02*
X01194Y01338D01*
Y01325*
X01188Y01318*
X01161*
X01155Y01325*
Y01338*
X01161Y01345*
X01188*
M02*