%FSTAX23Y23*%
%MOIN*%
%SFA1B1*%

%IPPOS*%
%ADD20C,0.047240*%
%ADD21R,0.047240X0.047240*%
%ADD23C,0.051180*%
%ADD24R,0.051180X0.051180*%
%ADD25C,0.035430*%
%ADD26R,0.035430X0.035430*%
%ADD30C,0.066930*%
%ADD31R,0.066930X0.066930*%
%ADD33R,0.074800X0.074800*%
%ADD34R,0.074800X0.070870*%
%ADD35R,0.053150X0.015750*%
%ADD36C,0.011810*%
%ADD37C,0.019680*%
%ADD38C,0.062990*%
%ADD39R,0.062990X0.062990*%
%ADD40C,0.027560*%
%ADD41R,0.053150X0.053150*%
%ADD42C,0.053150*%
%ADD43R,0.062990X0.062990*%
%ADD44C,0.157480*%
%LNoverlay-1*%
%LPD*%
G36*
X02605Y01045D02*
X0098D01*
Y01372*
X01064*
Y01295*
X01066Y01287*
X0107Y0128*
X01225Y01125*
X01232Y01121*
X0124Y01119*
X01405*
X01412Y01121*
X01419Y01125*
X01477Y01183*
X01484Y01181*
X01495*
X01506Y01184*
X01516Y0119*
X01524Y01198*
X0153Y01208*
X01533Y01219*
Y0123*
X0153Y01241*
X01524Y01251*
X01516Y01259*
X01506Y01265*
X01495Y01268*
X01484*
X01473Y01265*
X01463Y01259*
X01455Y01251*
X01449Y01241*
X01446Y0123*
Y01219*
X01448Y01212*
X01396Y0116*
X01248*
X01105Y01303*
Y01469*
X0111Y01472*
X01116Y01469*
X01125*
X01134Y01473*
X01141Y01479*
X01144Y01488*
Y01498*
X01143Y01501*
X01146Y01505*
X01166*
Y0154*
X01171Y01542*
X01213Y015*
X01218Y01497*
X01225Y01495*
X01235*
X01237Y0149*
X01231Y01485*
X01226Y01476*
X01223Y01465*
Y01454*
X01226Y01443*
X01231Y01434*
X01239Y01426*
X01248Y01421*
X01259Y01418*
X0127*
X01281Y01421*
X0129Y01426*
X01298Y01434*
X01303Y01443*
X01306Y01454*
Y01465*
X01303Y01476*
X01298Y01485*
X01292Y0149*
X01294Y01495*
X01467*
X01473Y01497*
X01478Y015*
X01485Y01507*
Y0153*
X0146*
X01458Y01528*
X01298*
X01296Y01532*
X01298Y01534*
X01303Y01543*
X01306Y01554*
Y01565*
X01303Y01576*
X01298Y01585*
X0129Y01593*
X01281Y01598*
X0127Y01601*
X01259*
X01248Y01598*
X01239Y01593*
X01231Y01585*
X01226Y01576*
X01223Y01565*
Y01554*
X01226Y01543*
X0123Y01536*
X01226Y01533*
X01195Y01564*
Y01642*
Y01667*
X01249Y01721*
X01259Y01718*
X0126*
Y01755*
X01223*
Y01754*
X01226Y01744*
X01167Y01685*
X01164Y0168*
X01162Y01674*
Y01649*
X01157Y01644*
X01146*
X01143Y01648*
X01144Y01651*
Y01661*
X01141Y0167*
X01134Y01676*
X01125Y0168*
X01116*
X01107Y01676*
X011Y0167*
X01097Y01661*
Y01651*
X01098Y01648*
X01096Y01644*
X01093*
Y01631*
X0113*
Y01621*
X01093*
Y01608*
Y01582*
Y01547*
X01088Y01543*
X01085Y01544*
X01077Y01542*
X01076Y01542*
X01072Y01544*
Y01574*
Y01669*
X0098*
Y01687*
X01072*
Y01777*
X0098*
Y03405*
X02605*
Y01045*
G37*
%LNoverlay-2*%
%LPC*%
G36*
X02174Y03341D02*
X01953D01*
X01946Y03339*
X01941Y03336*
X01891Y03286*
X01888Y03281*
X01886Y03275*
Y01544*
X01607Y01265*
X01606Y01265*
X01595Y01268*
X01584*
X01573Y01265*
X01563Y01259*
X01555Y01251*
X01549Y01241*
X01546Y0123*
Y01219*
X01549Y01208*
X01555Y01198*
X01563Y0119*
X01573Y01184*
X01584Y01181*
X01595*
X01606Y01184*
X01616Y0119*
X01624Y01198*
X0163Y01208*
X01633Y01219*
Y0123*
X0163Y01241*
X0163Y01242*
X01914Y01526*
X01917Y01531*
X01919Y01538*
Y03224*
X01924Y03225*
X01931Y03221*
X0194Y03219*
Y03255*
X01945*
Y0326*
X0198*
X01978Y03268*
X01973Y03276*
X01966Y03283*
X01958Y03288*
X01949Y0329*
X01948*
X01946Y03295*
X01959Y03308*
X02167*
X02196Y03279*
X02193Y03275*
X02189Y03278*
X0218Y0328*
Y0325*
X02211*
X02208Y03258*
X02206Y03263*
X0221Y03266*
X02218Y03257*
Y03209*
X02289*
Y0328*
X02241*
X02185Y03336*
X0218Y03339*
X02174Y03341*
G37*
G36*
X0243Y03296D02*
X0243D01*
Y0326*
X02466*
Y0326*
X02463Y03271*
X02458Y0328*
X0245Y03288*
X02441Y03293*
X0243Y03296*
G37*
G36*
X0242D02*
X02419D01*
X02408Y03293*
X02399Y03288*
X02391Y0328*
X02386Y03271*
X02383Y0326*
Y0326*
X0242*
Y03296*
G37*
G36*
X01455Y03291D02*
X01455D01*
Y03255*
X01491*
Y03255*
X01488Y03266*
X01483Y03275*
X01475Y03283*
X01466Y03288*
X01455Y03291*
G37*
G36*
X01445D02*
X01444D01*
X01433Y03288*
X01424Y03283*
X01416Y03275*
X01411Y03266*
X01408Y03255*
Y03255*
X01445*
Y03291*
G37*
G36*
X0217Y0328D02*
X02161Y03278D01*
X02153Y03273*
X02147Y03266*
X02142Y03258*
X0214Y0325*
X0217*
Y0328*
G37*
G36*
X0198Y0325D02*
X0195D01*
Y03219*
X01958Y03221*
X01966Y03226*
X01973Y03233*
X01978Y03241*
X0198Y0325*
G37*
G36*
X02466D02*
X0243D01*
Y03213*
X0243*
X02441Y03216*
X0245Y03221*
X02458Y03229*
X02463Y03238*
X02466Y03249*
Y0325*
G37*
G36*
X0242D02*
X02383D01*
Y03249*
X02386Y03238*
X02391Y03229*
X02399Y03221*
X02408Y03216*
X02419Y03213*
X0242*
Y0325*
G37*
G36*
X02211Y0324D02*
X0218D01*
Y03209*
X02189Y03211*
X02197Y03216*
X02204Y03223*
X02208Y03231*
X02211Y0324*
G37*
G36*
X0217D02*
X0214D01*
X02142Y03231*
X02147Y03223*
X02153Y03216*
X02161Y03211*
X0217Y03209*
Y0324*
G37*
G36*
X0154Y03376D02*
X01191D01*
X01185Y03374*
X0118Y03371*
X01113Y03304*
X0111Y03299*
X01108Y03293*
Y025*
X0111Y02493*
X01113Y02488*
X01226Y02375*
X01223Y02365*
Y02354*
X01226Y02343*
X01231Y02334*
X01239Y02326*
X01248Y02321*
X01259Y02318*
X0127*
X01281Y02321*
X0129Y02326*
X01298Y02334*
X01303Y02343*
X01306Y02354*
Y02365*
X01303Y02376*
X01298Y02385*
X0129Y02393*
X01281Y02398*
X0127Y02401*
X01259*
X01249Y02398*
X01141Y02506*
Y03286*
X01198Y03343*
X01225*
X01227Y03338*
X01163Y03274*
X0116Y03269*
X01158Y03263*
Y0255*
X0116Y02543*
X01163Y02538*
X01226Y02475*
X01223Y02465*
Y02454*
X01226Y02443*
X01231Y02434*
X01239Y02426*
X01248Y02421*
X01259Y02418*
X0127*
X01281Y02421*
X0129Y02426*
X01298Y02434*
X01303Y02443*
X01306Y02454*
Y02465*
X01303Y02476*
X01298Y02485*
X0129Y02493*
X01281Y02498*
X0127Y02501*
X01259*
X01249Y02498*
X01191Y02556*
Y03256*
X01218Y03284*
X01223Y03282*
Y03218*
X01306*
Y03301*
X01242*
X0124Y03306*
X01248Y03313*
X01463*
X01511Y03265*
X01508Y03255*
Y03244*
X01511Y03233*
X01516Y03224*
X01524Y03216*
X01533Y03211*
X01544Y03208*
X01555*
X01566Y03211*
X01575Y03216*
X01583Y03224*
X01588Y03233*
X01591Y03244*
Y03255*
X01588Y03266*
X01583Y03275*
X01575Y03283*
X01566Y03288*
X01555Y03291*
X01544*
X01534Y03288*
X01484Y03338*
X01486Y03343*
X01533*
X01611Y03265*
X01608Y03255*
Y03244*
X01611Y03233*
X01616Y03224*
X01624Y03216*
X01633Y03211*
X01644Y03208*
X01655*
X01666Y03211*
X01675Y03216*
X01683Y03224*
X01688Y03233*
X01691Y03244*
Y03255*
X01688Y03266*
X01683Y03275*
X01675Y03283*
X01666Y03288*
X01655Y03291*
X01644*
X01634Y03288*
X01551Y03371*
X01546Y03374*
X0154Y03376*
G37*
G36*
X01491Y03245D02*
X01455D01*
Y03208*
X01455*
X01466Y03211*
X01475Y03216*
X01483Y03224*
X01488Y03233*
X01491Y03244*
Y03245*
G37*
G36*
X01445D02*
X01408D01*
Y03244*
X01411Y03234*
X01383Y03206*
X0138Y03201*
X01378Y03195*
Y02196*
X0128Y02098*
X0127Y02101*
X0127*
Y02065*
X01306*
Y02065*
X01303Y02075*
X01406Y02178*
X01409Y02183*
X01411Y0219*
Y03188*
X01434Y03211*
X01444Y03208*
X01445*
Y03245*
G37*
G36*
X0127Y03201D02*
X01259D01*
X01248Y03198*
X01239Y03193*
X01231Y03185*
X01226Y03176*
X01223Y03165*
Y03154*
X01226Y03143*
X01231Y03134*
X01239Y03126*
X01248Y03121*
X01259Y03118*
X0127*
X01281Y03121*
X0129Y03126*
X01298Y03134*
X01303Y03143*
X01306Y03154*
Y03165*
X01303Y03176*
X01298Y03185*
X0129Y03193*
X01281Y03198*
X0127Y03201*
G37*
G36*
X0243Y03196D02*
X02419D01*
X02408Y03193*
X02399Y03188*
X02391Y0318*
X02386Y03171*
X02383Y0316*
Y03149*
X02386Y03138*
X02391Y03129*
X02399Y03121*
X02408Y03116*
X02419Y03113*
X0243*
X02441Y03116*
X0245Y03121*
X02458Y03129*
X02463Y03138*
X02466Y03149*
Y0316*
X02463Y03171*
X02458Y0318*
X0245Y03188*
X02441Y03193*
X0243Y03196*
G37*
G36*
X01518Y03173D02*
X01515D01*
Y0309*
X01598*
Y03093*
X01595Y0311*
X01588Y03127*
X01578Y03141*
X01566Y03153*
X01552Y03163*
X01535Y0317*
X01518Y03173*
G37*
G36*
X01505D02*
X01501D01*
X01484Y0317*
X01467Y03163*
X01453Y03153*
X01441Y03141*
X01431Y03127*
X01424Y0311*
X01421Y03093*
Y0309*
X01505*
Y03173*
G37*
G36*
X02248Y03163D02*
X02245D01*
Y0308*
X02328*
Y03083*
X02325Y031*
X02318Y03117*
X02308Y03131*
X02296Y03143*
X02282Y03153*
X02265Y0316*
X02248Y03163*
G37*
G36*
X02235D02*
X02231D01*
X02214Y0316*
X02197Y03153*
X02183Y03143*
X02171Y03131*
X02161Y03117*
X02154Y031*
X02151Y03083*
Y0308*
X02235*
Y03163*
G37*
G36*
X0127Y03101D02*
X01259D01*
X01248Y03098*
X01239Y03093*
X01231Y03085*
X01226Y03076*
X01223Y03065*
Y03054*
X01226Y03043*
X01231Y03034*
X01239Y03026*
X01248Y03021*
X01259Y03018*
X0127*
X01281Y03021*
X0129Y03026*
X01298Y03034*
X01303Y03043*
X01306Y03054*
Y03065*
X01303Y03076*
X01298Y03085*
X0129Y03093*
X01281Y03098*
X0127Y03101*
G37*
G36*
X0243Y03096D02*
X02419D01*
X02408Y03093*
X02399Y03088*
X02391Y0308*
X02386Y03071*
X02383Y0306*
Y03049*
X02386Y03038*
X02391Y03029*
X02399Y03021*
X02408Y03016*
X02419Y03013*
X0243*
X02441Y03016*
X0245Y03021*
X02458Y03029*
X02463Y03038*
X02466Y03049*
Y0306*
X02463Y03071*
X02458Y0308*
X0245Y03088*
X02441Y03093*
X0243Y03096*
G37*
G36*
X01598Y0308D02*
X01515D01*
Y02996*
X01518*
X01535Y02999*
X01552Y03006*
X01566Y03016*
X01578Y03028*
X01588Y03042*
X01595Y03059*
X01598Y03076*
Y0308*
G37*
G36*
X01505D02*
X01421D01*
Y03076*
X01424Y03059*
X01431Y03042*
X01441Y03028*
X01453Y03016*
X01467Y03006*
X01484Y02999*
X01501Y02996*
X01505*
Y0308*
G37*
G36*
X02328Y0307D02*
X02245D01*
Y02986*
X02248*
X02265Y02989*
X02282Y02996*
X02296Y03006*
X02308Y03018*
X02318Y03032*
X02325Y03049*
X02328Y03066*
Y0307*
G37*
G36*
X02235D02*
X02151D01*
Y03066*
X02154Y03049*
X02161Y03032*
X02171Y03018*
X02183Y03006*
X02197Y02996*
X02214Y02989*
X02231Y02986*
X02235*
Y0307*
G37*
G36*
X0127Y03001D02*
X01259D01*
X01248Y02998*
X01239Y02993*
X01231Y02985*
X01226Y02976*
X01223Y02965*
Y02954*
X01226Y02943*
X01231Y02934*
X01239Y02926*
X01248Y02921*
X01259Y02918*
X0127*
X01281Y02921*
X0129Y02926*
X01298Y02934*
X01303Y02943*
X01306Y02954*
Y02965*
X01303Y02976*
X01298Y02985*
X0129Y02993*
X01281Y02998*
X0127Y03001*
G37*
G36*
X0243Y02996D02*
X02419D01*
X02408Y02993*
X02399Y02988*
X02391Y0298*
X02386Y02971*
X02383Y0296*
Y02949*
X02386Y02938*
X02391Y02929*
X02399Y02921*
X02408Y02916*
X02419Y02913*
X0243*
X02441Y02916*
X0245Y02921*
X02458Y02929*
X02463Y02938*
X02466Y02949*
Y0296*
X02463Y02971*
X02458Y0298*
X0245Y02988*
X02441Y02993*
X0243Y02996*
G37*
G36*
X01791Y03291D02*
X01708D01*
Y03208*
X01733*
Y03103*
X01511Y02881*
X01504Y02883*
X01495*
X01485Y02881*
X01477Y02876*
X0147Y02869*
X01465Y02861*
X01463Y02851*
Y02842*
X01465Y02835*
X01435Y02805*
X01432Y028*
X0143Y02794*
Y02048*
X0128Y01898*
X0127Y01901*
X01259*
X01248Y01898*
X01239Y01893*
X01231Y01885*
X01226Y01876*
X01223Y01865*
Y01854*
X01226Y01843*
X01231Y01834*
X01239Y01826*
X01248Y01821*
X01259Y01818*
X0127*
X01281Y01821*
X0129Y01826*
X01298Y01834*
X01303Y01843*
X01306Y01854*
Y01865*
X01303Y01875*
X01458Y0203*
X01461Y02035*
X01463Y02042*
Y02451*
X01463Y02456*
X01468*
X01483*
Y02025*
X01485Y02018*
X01488Y02013*
X01507Y01994*
Y01562*
X01502Y01559*
X015Y0156*
X01495Y01562*
Y01535*
Y01507*
X015Y01509*
X01502Y0151*
X01507Y01507*
Y015*
X01494Y01487*
X01462*
Y01432*
X01517*
Y01464*
X01535Y01482*
X01538Y01487*
X0154Y01494*
Y02001*
X01538Y02007*
X01535Y02012*
X01516Y02031*
Y02456*
X01536*
Y02529*
X01463*
X01463Y02534*
Y02787*
X01488Y02812*
X01495Y0281*
X01504*
X01514Y02813*
X01522Y02817*
X01529Y02824*
X01534Y02833*
X01536Y02842*
Y02851*
X01534Y02858*
X01761Y03085*
X01764Y0309*
X01766Y03097*
Y03208*
X01791*
Y03291*
G37*
G36*
X0127Y02901D02*
X01259D01*
X01248Y02898*
X01239Y02893*
X01231Y02885*
X01226Y02876*
X01223Y02865*
Y02854*
X01226Y02843*
X01231Y02834*
X01239Y02826*
X01248Y02821*
X01259Y02818*
X0127*
X01281Y02821*
X0129Y02826*
X01298Y02834*
X01303Y02843*
X01306Y02854*
Y02865*
X01303Y02876*
X01298Y02885*
X0129Y02893*
X01281Y02898*
X0127Y02901*
G37*
G36*
X0243Y02896D02*
X02419D01*
X02408Y02893*
X02399Y02888*
X02391Y0288*
X02386Y02871*
X02383Y0286*
Y02849*
X02386Y02838*
X02391Y02829*
X02399Y02821*
X02408Y02816*
X02419Y02813*
X0243*
X02441Y02816*
X0245Y02821*
X02458Y02829*
X02463Y02838*
X02466Y02849*
Y0286*
X02463Y02871*
X02458Y0288*
X0245Y02888*
X02441Y02893*
X0243Y02896*
G37*
G36*
X02258Y02821D02*
X02191D01*
Y02754*
X02258*
Y02821*
G37*
G36*
X0127Y02801D02*
X01259D01*
X01248Y02798*
X01239Y02793*
X01231Y02785*
X01226Y02776*
X01223Y02765*
Y02754*
X01226Y02743*
X01231Y02734*
X01239Y02726*
X01248Y02721*
X01259Y02718*
X0127*
X01281Y02721*
X0129Y02726*
X01298Y02734*
X01303Y02743*
X01306Y02754*
Y02765*
X01303Y02776*
X01298Y02785*
X0129Y02793*
X01281Y02798*
X0127Y02801*
G37*
G36*
X0243Y02796D02*
X02419D01*
X02408Y02793*
X02399Y02788*
X02391Y0278*
X02386Y02771*
X02383Y0276*
Y02749*
X02386Y02738*
X02391Y02729*
X02399Y02721*
X02408Y02716*
X02419Y02713*
X0243*
X02441Y02716*
X0245Y02721*
X02458Y02729*
X02463Y02738*
X02466Y02749*
Y0276*
X02463Y02771*
X02458Y0278*
X0245Y02788*
X02441Y02793*
X0243Y02796*
G37*
G36*
X0127Y02701D02*
X01259D01*
X01248Y02698*
X01239Y02693*
X01231Y02685*
X01226Y02676*
X01223Y02665*
Y02654*
X01226Y02643*
X01231Y02634*
X01239Y02626*
X01248Y02621*
X01259Y02618*
X0127*
X01281Y02621*
X0129Y02626*
X01298Y02634*
X01303Y02643*
X01306Y02654*
Y02665*
X01303Y02676*
X01298Y02685*
X0129Y02693*
X01281Y02698*
X0127Y02701*
G37*
G36*
X0243Y02696D02*
X02419D01*
X02408Y02693*
X02399Y02688*
X02391Y0268*
X02386Y02671*
X02383Y0266*
Y02649*
X02386Y02638*
X02391Y02629*
X02399Y02621*
X02408Y02616*
X02419Y02613*
X0243*
X02441Y02616*
X0245Y02621*
X02458Y02629*
X02463Y02638*
X02466Y02649*
Y0266*
X02463Y02671*
X02458Y0268*
X0245Y02688*
X02441Y02693*
X0243Y02696*
G37*
G36*
X0127Y02601D02*
X01259D01*
X01248Y02598*
X01239Y02593*
X01231Y02585*
X01226Y02576*
X01223Y02565*
Y02554*
X01226Y02543*
X01231Y02534*
X01239Y02526*
X01248Y02521*
X01259Y02518*
X0127*
X01281Y02521*
X0129Y02526*
X01298Y02534*
X01303Y02543*
X01306Y02554*
Y02565*
X01303Y02576*
X01298Y02585*
X0129Y02593*
X01281Y02598*
X0127Y02601*
G37*
G36*
X02059Y0329D02*
X01988D01*
Y03219*
X02007*
Y02849*
X02008Y02843*
X02012Y02837*
X02306Y02543*
X02311Y0254*
X02318Y02538*
X02386*
X02391Y02529*
X02399Y02521*
X02408Y02516*
X02419Y02513*
X0243*
X02441Y02516*
X0245Y02521*
X02458Y02529*
X02463Y02538*
X02466Y02549*
Y0256*
X02463Y02571*
X02458Y0258*
X0245Y02588*
X02441Y02593*
X0243Y02596*
X02419*
X02408Y02593*
X02399Y02588*
X02391Y0258*
X02386Y02571*
X02324*
X02039Y02855*
Y03219*
X02059*
Y0329*
G37*
G36*
X02229Y02525D02*
X0222D01*
X02212Y02523*
X02204Y02519*
X02198Y02513*
X02193Y02505*
X02191Y02496*
Y02487*
X02193Y02479*
X02198Y02471*
X02204Y02465*
X02212Y02461*
X0222Y02458*
X02229*
X02237Y02461*
X02245Y02465*
X02251Y02471*
X02256Y02479*
X02258Y02487*
Y02496*
X02256Y02505*
X02251Y02513*
X02245Y02519*
X02237Y02523*
X02229Y02525*
G37*
G36*
X0243Y02496D02*
X02419D01*
X02408Y02493*
X02399Y02488*
X02391Y0248*
X02386Y02471*
X02383Y0246*
Y02449*
X02386Y02438*
X02391Y02429*
X02399Y02421*
X02408Y02416*
X02419Y02413*
X0243*
X02441Y02416*
X0245Y02421*
X02458Y02429*
X02463Y02438*
X02466Y02449*
Y0246*
X02463Y02471*
X02458Y0248*
X0245Y02488*
X02441Y02493*
X0243Y02496*
G37*
G36*
Y02396D02*
X02419D01*
X02408Y02393*
X02399Y02388*
X02391Y0238*
X02386Y02371*
X02383Y0236*
Y02349*
X02386Y02338*
X02391Y02329*
X02399Y02321*
X02408Y02316*
X02419Y02313*
X0243*
X02441Y02316*
X0245Y02321*
X02458Y02329*
X02463Y02338*
X02466Y02349*
Y0236*
X02463Y02371*
X02458Y0238*
X0245Y02388*
X02441Y02393*
X0243Y02396*
G37*
G36*
X0127Y02301D02*
X01259D01*
X01248Y02298*
X01239Y02293*
X01231Y02285*
X01226Y02276*
X01223Y02265*
Y02254*
X01226Y02243*
X01231Y02234*
X01239Y02226*
X01248Y02221*
X01259Y02218*
X0127*
X01281Y02221*
X0129Y02226*
X01298Y02234*
X01303Y02243*
X01306Y02254*
Y02265*
X01303Y02276*
X01298Y02285*
X0129Y02293*
X01281Y02298*
X0127Y02301*
G37*
G36*
X0243Y02296D02*
X02419D01*
X02408Y02293*
X02399Y02288*
X02391Y0228*
X02386Y02271*
X02383Y0226*
Y02249*
X02386Y02238*
X02391Y02229*
X02399Y02221*
X02408Y02216*
X02419Y02213*
X0243*
X02441Y02216*
X0245Y02221*
X02458Y02229*
X02463Y02238*
X02466Y02249*
Y0226*
X02463Y02271*
X02458Y0228*
X0245Y02288*
X02441Y02293*
X0243Y02296*
G37*
G36*
X0127Y02201D02*
X01259D01*
X01248Y02198*
X01239Y02193*
X01231Y02185*
X01226Y02176*
X01223Y02165*
Y02154*
X01226Y02143*
X01231Y02134*
X01239Y02126*
X01248Y02121*
X01259Y02118*
X0127*
X01281Y02121*
X0129Y02126*
X01298Y02134*
X01303Y02143*
X01306Y02154*
Y02165*
X01303Y02176*
X01298Y02185*
X0129Y02193*
X01281Y02198*
X0127Y02201*
G37*
G36*
X0243Y02196D02*
X02419D01*
X02408Y02193*
X02399Y02188*
X02391Y0218*
X02386Y02171*
X02383Y0216*
Y02149*
X02386Y02138*
X02391Y02129*
X02399Y02121*
X02408Y02116*
X02419Y02113*
X0243*
X02441Y02116*
X0245Y02121*
X02458Y02129*
X02463Y02138*
X02466Y02149*
Y0216*
X02463Y02171*
X02458Y0218*
X0245Y02188*
X02441Y02193*
X0243Y02196*
G37*
G36*
X0126Y02101D02*
X01259D01*
X01248Y02098*
X01239Y02093*
X01231Y02085*
X01226Y02076*
X01223Y02065*
Y02065*
X0126*
Y02101*
G37*
G36*
X01306Y02055D02*
X0127D01*
Y02018*
X0127*
X01281Y02021*
X0129Y02026*
X01298Y02034*
X01303Y02043*
X01306Y02054*
Y02055*
G37*
G36*
X0126D02*
X01223D01*
Y02054*
X01226Y02044*
X01178Y01996*
X01175Y01991*
X01173Y01985*
Y01835*
X01175Y01828*
X01178Y01823*
X01226Y01775*
X01223Y01765*
Y01765*
X0126*
Y01801*
X01259*
X01249Y01798*
X01206Y01841*
Y01978*
X01249Y02021*
X01259Y02018*
X0126*
Y02055*
G37*
G36*
X0243Y02096D02*
X02419D01*
X02408Y02093*
X02399Y02088*
X02391Y0208*
X02386Y02071*
X02383Y0206*
Y02049*
X02386Y02038*
X02391Y02029*
X02399Y02021*
X02408Y02016*
X02419Y02013*
X0243*
X02441Y02016*
X0245Y02021*
X02458Y02029*
X02463Y02038*
X02466Y02049*
Y0206*
X02463Y02071*
X02458Y0208*
X0245Y02088*
X02441Y02093*
X0243Y02096*
G37*
G36*
X0127Y02001D02*
X01259D01*
X01248Y01998*
X01239Y01993*
X01231Y01985*
X01226Y01976*
X01223Y01965*
Y01954*
X01226Y01943*
X01231Y01934*
X01239Y01926*
X01248Y01921*
X01259Y01918*
X0127*
X01281Y01921*
X0129Y01926*
X01298Y01934*
X01303Y01943*
X01306Y01954*
Y01965*
X01303Y01976*
X01298Y01985*
X0129Y01993*
X01281Y01998*
X0127Y02001*
G37*
G36*
X0243Y01996D02*
X02419D01*
X02408Y01993*
X02399Y01988*
X02391Y0198*
X02386Y01971*
X02383Y0196*
Y01949*
X02386Y01938*
X02391Y01929*
X02399Y01921*
X02408Y01916*
X02419Y01913*
X0243*
X02441Y01916*
X0245Y01921*
X02458Y01929*
X02463Y01938*
X02466Y01949*
Y0196*
X02463Y01971*
X02458Y0198*
X0245Y01988*
X02441Y01993*
X0243Y01996*
G37*
G36*
Y01896D02*
X02419D01*
X02408Y01893*
X02399Y01888*
X02391Y0188*
X02386Y01871*
X02383Y0186*
Y01849*
X02386Y01838*
X02391Y01829*
X02399Y01821*
X02408Y01816*
X02419Y01813*
X0243*
X02441Y01816*
X0245Y01821*
X02458Y01829*
X02463Y01838*
X02466Y01849*
Y0186*
X02463Y01871*
X02458Y0188*
X0245Y01888*
X02441Y01893*
X0243Y01896*
G37*
G36*
X01688Y01853D02*
X01685D01*
Y0177*
X01768*
Y01773*
X01765Y0179*
X01758Y01807*
X01748Y01821*
X01736Y01833*
X01722Y01843*
X01705Y0185*
X01688Y01853*
G37*
G36*
X01675D02*
X01671D01*
X01654Y0185*
X01637Y01843*
X01623Y01833*
X01611Y01821*
X01601Y01807*
X01594Y0179*
X01591Y01773*
Y0177*
X01675*
Y01853*
G37*
G36*
X0127Y01801D02*
X0127D01*
Y01765*
X01306*
Y01765*
X01303Y01776*
X01298Y01785*
X0129Y01793*
X01281Y01798*
X0127Y01801*
G37*
G36*
X01306Y01755D02*
X0127D01*
Y01718*
X0127*
X01281Y01721*
X0129Y01726*
X01298Y01734*
X01303Y01743*
X01306Y01754*
Y01755*
G37*
G36*
X0243Y01796D02*
X02419D01*
X02408Y01793*
X02399Y01788*
X02391Y0178*
X02386Y01771*
X02383Y0176*
Y01749*
X02386Y01738*
X02391Y01729*
X02399Y01721*
X02408Y01716*
X02419Y01713*
X0243*
X02441Y01716*
X0245Y01721*
X02458Y01729*
X02463Y01738*
X02466Y01749*
Y0176*
X02463Y01771*
X02458Y0178*
X0245Y01788*
X02441Y01793*
X0243Y01796*
G37*
G36*
X01768Y0176D02*
X01685D01*
Y01676*
X01688*
X01705Y01679*
X01722Y01686*
X01736Y01696*
X01748Y01708*
X01758Y01722*
X01765Y01739*
X01768Y01756*
Y0176*
G37*
G36*
X01675D02*
X01591D01*
Y01756*
X01594Y01739*
X01601Y01722*
X01611Y01708*
X01623Y01696*
X01637Y01686*
X01654Y01679*
X01671Y01676*
X01675*
Y0176*
G37*
G36*
X0127Y01701D02*
X01259D01*
X01248Y01698*
X01239Y01693*
X01231Y01685*
X01226Y01676*
X01223Y01665*
Y01654*
X01226Y01643*
X01231Y01634*
X01239Y01626*
X01248Y01621*
X01259Y01618*
X0127*
X01281Y01621*
X0129Y01626*
X01298Y01634*
X01303Y01643*
X01306Y01654*
Y01665*
X01303Y01676*
X01298Y01685*
X0129Y01693*
X01281Y01698*
X0127Y01701*
G37*
G36*
X0243Y01696D02*
X02419D01*
X02408Y01693*
X02399Y01688*
X02391Y0168*
X02386Y01671*
X02383Y0166*
Y01649*
X02386Y01638*
X02391Y01629*
X02399Y01621*
X02408Y01616*
X02419Y01613*
X0243*
X02441Y01616*
X0245Y01621*
X02458Y01629*
X02463Y01638*
X02466Y01649*
Y0166*
X02463Y01671*
X02458Y0168*
X0245Y01688*
X02441Y01693*
X0243Y01696*
G37*
G36*
X01485Y01562D02*
X01479Y0156D01*
X01472Y01557*
X01467Y01552*
X01464Y01545*
X01462Y0154*
X01485*
Y01562*
G37*
G36*
X0243Y01596D02*
X02419D01*
X02408Y01593*
X02399Y01588*
X02391Y0158*
X02386Y01571*
X02383Y0156*
Y01549*
X02386Y01538*
X02391Y01529*
X02399Y01521*
X02408Y01516*
X02419Y01513*
X0243*
X02441Y01516*
X0245Y01521*
X02458Y01529*
X02463Y01538*
X02466Y01549*
Y0156*
X02463Y01571*
X02458Y0158*
X0245Y01588*
X02441Y01593*
X0243Y01596*
G37*
G36*
X0218Y01546D02*
X02169D01*
X02158Y01543*
X02149Y01538*
X02141Y0153*
X02136Y01521*
X02133Y0151*
Y01499*
X02136Y01488*
X02141Y01479*
X02149Y01471*
X02158Y01466*
X02169Y01463*
X0218*
X02191Y01466*
X022Y01471*
X02208Y01479*
X02213Y01488*
X02216Y01499*
Y0151*
X02213Y01521*
X02208Y0153*
X022Y01538*
X02191Y01543*
X0218Y01546*
G37*
G36*
X0208D02*
X02069D01*
X02058Y01543*
X02049Y01538*
X02041Y0153*
X02036Y01521*
X02033Y0151*
Y01499*
X02036Y01488*
X02041Y01479*
X02049Y01471*
X02058Y01466*
X02069Y01463*
X0208*
X02091Y01466*
X021Y01471*
X02108Y01479*
X02113Y01488*
X02116Y01499*
Y0151*
X02113Y01521*
X02108Y0153*
X021Y01538*
X02091Y01543*
X0208Y01546*
G37*
G36*
X0243Y01496D02*
X02419D01*
X02408Y01493*
X02399Y01488*
X02391Y0148*
X02386Y01471*
X02383Y0146*
Y01449*
X02386Y01438*
X02391Y01429*
X02399Y01421*
X02408Y01416*
X02419Y01413*
X0243*
X02441Y01416*
X0245Y01421*
X02458Y01429*
X02463Y01438*
X02466Y01449*
Y0146*
X02463Y01471*
X02458Y0148*
X0245Y01488*
X02441Y01493*
X0243Y01496*
G37*
G36*
X0127Y01401D02*
X01259D01*
X01248Y01398*
X01239Y01393*
X01231Y01385*
X01226Y01376*
X01223Y01365*
Y01354*
X01226Y01343*
X01231Y01334*
X01239Y01326*
X01248Y01321*
X01259Y01318*
X0127*
X01281Y01321*
X0129Y01326*
X01298Y01334*
X01303Y01343*
X01306Y01354*
Y01365*
X01303Y01376*
X01298Y01385*
X0129Y01393*
X01281Y01398*
X0127Y01401*
G37*
G36*
X02466Y01396D02*
X02383D01*
Y01313*
X02466*
Y01396*
G37*
G36*
X02488Y01268D02*
X02485D01*
Y01185*
X02568*
Y01188*
X02565Y01205*
X02558Y01222*
X02548Y01236*
X02536Y01248*
X02522Y01258*
X02505Y01265*
X02488Y01268*
G37*
G36*
X02475D02*
X02471D01*
X02454Y01265*
X02437Y01258*
X02423Y01248*
X02411Y01236*
X02401Y01222*
X02394Y01205*
X02391Y01188*
Y01185*
X02475*
Y01268*
G37*
G36*
X02333Y01268D02*
X02246D01*
Y01181*
X02333*
Y01268*
G37*
G36*
X02195D02*
X02184D01*
X02173Y01265*
X02163Y01259*
X02155Y01251*
X02149Y01241*
X02146Y0123*
Y01219*
X02149Y01208*
X02155Y01198*
X02163Y0119*
X02173Y01184*
X02184Y01181*
X02195*
X02206Y01184*
X02216Y0119*
X02224Y01198*
X0223Y01208*
X02233Y01219*
Y0123*
X0223Y01241*
X02224Y01251*
X02216Y01259*
X02206Y01265*
X02195Y01268*
G37*
G36*
X02095D02*
X02084D01*
X02073Y01265*
X02063Y01259*
X02055Y01251*
X02049Y01241*
X02046Y0123*
Y01219*
X02049Y01208*
X02055Y01198*
X02063Y0119*
X02073Y01184*
X02084Y01181*
X02095*
X02106Y01184*
X02116Y0119*
X02124Y01198*
X0213Y01208*
X02133Y01219*
Y0123*
X0213Y01241*
X02124Y01251*
X02116Y01259*
X02106Y01265*
X02095Y01268*
G37*
G36*
X01995D02*
X01984D01*
X01973Y01265*
X01963Y01259*
X01955Y01251*
X01949Y01241*
X01946Y0123*
Y01219*
X01949Y01208*
X01955Y01198*
X01963Y0119*
X01973Y01184*
X01984Y01181*
X01995*
X02006Y01184*
X02016Y0119*
X02024Y01198*
X0203Y01208*
X02033Y01219*
Y0123*
X0203Y01241*
X02024Y01251*
X02016Y01259*
X02006Y01265*
X01995Y01268*
G37*
G36*
X01895D02*
X01884D01*
X01873Y01265*
X01863Y01259*
X01855Y01251*
X01849Y01241*
X01846Y0123*
Y01219*
X01849Y01208*
X01855Y01198*
X01863Y0119*
X01873Y01184*
X01884Y01181*
X01895*
X01906Y01184*
X01916Y0119*
X01924Y01198*
X0193Y01208*
X01933Y01219*
Y0123*
X0193Y01241*
X01924Y01251*
X01916Y01259*
X01906Y01265*
X01895Y01268*
G37*
G36*
X01795D02*
X01784D01*
X01773Y01265*
X01763Y01259*
X01755Y01251*
X01749Y01241*
X01746Y0123*
Y01219*
X01749Y01208*
X01755Y01198*
X01763Y0119*
X01773Y01184*
X01784Y01181*
X01795*
X01806Y01184*
X01816Y0119*
X01824Y01198*
X0183Y01208*
X01833Y01219*
Y0123*
X0183Y01241*
X01824Y01251*
X01816Y01259*
X01806Y01265*
X01795Y01268*
G37*
G36*
X01695D02*
X01684D01*
X01673Y01265*
X01663Y01259*
X01655Y01251*
X01649Y01241*
X01646Y0123*
Y01219*
X01649Y01208*
X01655Y01198*
X01663Y0119*
X01673Y01184*
X01684Y01181*
X01695*
X01706Y01184*
X01716Y0119*
X01724Y01198*
X0173Y01208*
X01733Y01219*
Y0123*
X0173Y01241*
X01724Y01251*
X01716Y01259*
X01706Y01265*
X01695Y01268*
G37*
G36*
X01395D02*
X01384D01*
X01373Y01265*
X01363Y01259*
X01355Y01251*
X01349Y01241*
X01346Y0123*
Y01219*
X01349Y01208*
X01355Y01198*
X01363Y0119*
X01373Y01184*
X01384Y01181*
X01395*
X01406Y01184*
X01416Y0119*
X01424Y01198*
X0143Y01208*
X01433Y01219*
Y0123*
X0143Y01241*
X01424Y01251*
X01416Y01259*
X01406Y01265*
X01395Y01268*
G37*
G36*
X02568Y01175D02*
X02485D01*
Y01091*
X02488*
X02505Y01094*
X02522Y01101*
X02536Y01111*
X02548Y01123*
X02558Y01137*
X02565Y01154*
X02568Y01171*
Y01175*
G37*
G36*
X02475D02*
X02391D01*
Y01171*
X02394Y01154*
X02401Y01137*
X02411Y01123*
X02423Y01111*
X02437Y01101*
X02454Y01094*
X02471Y01091*
X02475*
Y01175*
G37*
%LNoverlay-3*%
%LPD*%
G54D20*
X02225Y02492D03*
G54D21*
X02225Y02787D03*
G54D23*
X01945Y03255D03*
X02175Y03245D03*
G54D24*
X02023Y03255D03*
X02254Y03245D03*
G54D25*
X0149Y01535D03*
G54D26*
X0149Y0146D03*
G54D30*
X0139Y01225D03*
X0149D03*
X0159D03*
X0169D03*
X0179D03*
X0189D03*
X0199D03*
X0209D03*
X0219D03*
G54D31*
X0229Y01225D03*
G54D33*
X01024Y01527D03*
Y01622D03*
G54D34*
X01024Y01417D03*
Y01732D03*
G54D35*
X0113Y01523D03*
Y01626D03*
Y01549D03*
Y01575D03*
Y016D03*
G54D36*
X0119Y01835D02*
X01265Y0176D01*
X0119Y01985D02*
X01265Y0206D01*
X0119Y01835D02*
Y01985D01*
X01085Y01523D02*
X0113D01*
X01903Y03275D02*
X01953Y03325D01*
X02174*
X02254Y03245*
X01175Y03263D02*
X01241Y0333D01*
X0147D02*
X0155Y0325D01*
X01241Y0333D02*
X0147D01*
X01175Y0255D02*
X01265Y0246D01*
X01175Y0255D02*
Y03263D01*
X01125Y025D02*
X01265Y0236D01*
X01125Y03293D02*
X01191Y0336D01*
X01125Y025D02*
Y03293D01*
X0154Y0336D02*
X0165Y0325D01*
X01191Y0336D02*
X0154D01*
X01179Y01642D02*
Y01674D01*
Y01558D02*
Y01642D01*
Y01674D02*
X01265Y0176D01*
X01179Y01558D02*
X01225Y01512D01*
X01467*
X0149Y01535*
X01162Y01626D02*
X01179Y01642D01*
X0113Y01626D02*
X01162D01*
X01265Y0206D02*
X01395Y0219D01*
Y03195*
X0145Y0325*
X01265Y0186D02*
X01447Y02042D01*
Y02794*
X015Y02847*
X0175Y03097*
Y0325*
X0159Y01225D02*
X01903Y01538D01*
Y03275*
X02023Y02849D02*
Y03255D01*
Y02849D02*
X02318Y02555D01*
X02425*
X0149Y0146D02*
X01524Y01494D01*
Y02001*
X015Y02025D02*
X01524Y02001D01*
X015Y02025D02*
Y02492D01*
G54D37*
X01405Y0114D02*
X0149Y01225D01*
X01085Y01295D02*
X0124Y0114D01*
X01405*
X01085Y01295D02*
Y01523D01*
G54D38*
X0145Y0325D03*
X0155D03*
X0165D03*
X02175Y01505D03*
X02075D03*
X02425Y02755D03*
Y02455D03*
Y02355D03*
Y02255D03*
Y02055D03*
Y01955D03*
Y01755D03*
Y01555D03*
Y01455D03*
Y01655D03*
Y01855D03*
Y02155D03*
Y02555D03*
Y02655D03*
Y02855D03*
Y02955D03*
Y03055D03*
Y03155D03*
Y03255D03*
X01265Y0186D03*
Y0216D03*
Y0226D03*
Y0236D03*
Y0256D03*
Y0266D03*
Y0286D03*
Y0306D03*
Y0316D03*
Y0296D03*
Y0276D03*
Y0246D03*
Y0206D03*
Y0196D03*
Y0176D03*
Y0166D03*
Y0156D03*
Y0146D03*
Y0136D03*
G54D39*
X0175Y0325D03*
G54D40*
X01121Y01493D03*
Y01656D03*
G54D41*
X015Y02492D03*
G54D42*
X015Y02847D03*
G54D43*
X02425Y01355D03*
X01265Y0326D03*
G54D44*
X0168Y01765D03*
X0224Y03075D03*
X0151Y03085D03*
X0248Y0118D03*
M02*