%FSTAX23Y23*%
%MOIN*%
%SFA1B1*%

%IPPOS*%
%ADD10C,0.009840*%
%ADD11C,0.007870*%
%ADD12C,0.010000*%
%ADD13C,0.006000*%
%LNpcb2-1*%
%LPD*%
G54D10*
X01482Y03302D02*
D01*
D01*
G75*
G03X01472I-00004J0D01*
G74*G01*
D01*
G75*
G03X01482I00004J0D01*
G74*G01*
X02375Y01225D02*
D01*
D01*
G75*
G03X02365I-00004J0D01*
G74*G01*
D01*
G75*
G03X02375I00004J0D01*
G74*G01*
G54D11*
X01514Y03329D02*
Y03744D01*
Y02475D02*
Y02528D01*
X02018Y02475D02*
X02115D01*
X01514D02*
X01611D01*
X02115Y03329D02*
Y03744D01*
Y02475D02*
Y02528D01*
X01514Y03744D02*
X02115D01*
X02372Y0331D02*
X02477D01*
X02372Y01299D02*
Y0331D01*
Y01299D02*
X02477D01*
Y0331*
X01212Y01304D02*
X01317D01*
X01212D02*
Y03315D01*
X01317*
Y01304D02*
Y03315D01*
X02346Y01172D02*
Y01277D01*
X01333Y01172D02*
X02346D01*
X01333D02*
Y01277D01*
X02346*
G54D12*
X01478Y03783D02*
Y03842D01*
X01497Y03822*
X01517Y03842*
Y03783*
X01537Y03842D02*
Y03783D01*
X01567*
X01577Y03793*
Y03832*
X01567Y03842*
X01537*
X01597Y03783D02*
X01617D01*
X01607*
Y03842*
X01597Y03832*
X0219Y01955D02*
Y02014D01*
X0222*
X0223Y02004*
Y01985*
X0222Y01975*
X0219*
X02289Y01955D02*
X0225D01*
X02289Y01995*
Y02004*
X02279Y02014*
X02259*
X0225Y02004*
X01345Y03205D02*
Y03264D01*
X01375*
X01385Y03254*
Y03235*
X01375Y03225*
X01345*
X01404Y03205D02*
X01424D01*
X01414*
Y03264*
X01404Y03254*
X0137Y01149D02*
Y011D01*
X0138Y0109*
X014*
X0141Y011*
Y01149*
X01429Y0109D02*
X01449D01*
X01439*
Y01149*
X01429Y01139*
G54D13*
X0235Y0223D02*
Y02243D01*
Y02236*
X0231*
X02316Y0223*
Y02263D02*
X0231Y02269D01*
Y02283*
X02316Y02289*
X02343*
X0235Y02283*
Y02269*
X02343Y02263*
X02316*
X02345Y0135D02*
Y01363D01*
Y01356*
X02305*
X02311Y0135*
X02348Y03256D02*
Y03229D01*
X02321Y03256*
X02314*
X02308Y03249*
Y03236*
X02314Y03229*
Y03269D02*
X02308Y03276D01*
Y03289*
X02314Y03296*
X02341*
X02348Y03289*
Y03276*
X02341Y03269*
X02314*
X01155Y02385D02*
Y02371D01*
Y02378*
X01194*
X01188Y02385*
Y02351D02*
X01194Y02345D01*
Y02331*
X01188Y02325*
X01161*
X01155Y02331*
Y02345*
X01161Y02351*
X01188*
X0115Y0326D02*
Y03246D01*
Y03253*
X01189*
X01183Y0326*
X01155Y01358D02*
Y01385D01*
X01181Y01358*
X01188*
X01194Y01365*
Y01378*
X01188Y01385*
Y01345D02*
X01194Y01338D01*
Y01325*
X01188Y01318*
X01161*
X01155Y01325*
Y01338*
X01161Y01345*
X01188*
M02*