%FSTAX23Y23*%
%MOIN*%
%SFA1B1*%

%IPPOS*%
%ADD9500C,0.028000*%
%ADD9501C,0.043310*%
%ADD9502C,0.118110*%
%LNpcb2-1*%
%LPD*%
G54D9500*
X0161Y0256D03*
X01645Y02691D03*
X0161Y0281D03*
X01605Y02945D03*
X0161Y03075D03*
X0219Y0299D03*
X0228Y0296D03*
X02325Y03015D03*
X023Y02675D03*
X02176Y02716D03*
X02013Y0264D03*
X0216Y0242D03*
X02206Y02355D03*
X0142Y0282D03*
X01386Y02914D03*
X0145Y02975D03*
X01835Y0324D03*
X0223Y03175D03*
X0228Y03125D03*
G54D9501*
X0139Y01225D03*
X0149D03*
X01265Y0136D03*
Y0146D03*
Y0156D03*
X0159Y01225D03*
X0169D03*
X0179D03*
X0189D03*
X0199D03*
X0209D03*
X0219D03*
X0229D03*
X02425Y01355D03*
Y01455D03*
Y01555D03*
Y01655D03*
Y01755D03*
Y01855D03*
Y01955D03*
Y02055D03*
Y02155D03*
Y02255D03*
Y02355D03*
Y02455D03*
Y02555D03*
Y02655D03*
Y02755D03*
Y02855D03*
Y02955D03*
Y03055D03*
X01265Y0306D03*
Y0296D03*
Y0286D03*
Y0276D03*
Y0266D03*
Y0256D03*
Y0246D03*
Y0236D03*
Y0226D03*
Y0216D03*
Y0206D03*
Y0196D03*
Y0186D03*
Y0176D03*
Y0166D03*
Y0316D03*
Y0326D03*
X02425Y03255D03*
Y03155D03*
G54D9502*
X0121Y0116D03*
X02495D03*
M02*